# Blender v2.91.0 OBJ File: ''
# www.blender.org
mtllib hitbox.mtl
o Icosphere
v 0.000000 -1.000000 0.000000
v 0.723607 -0.447220 0.525725
v -0.276388 -0.447220 0.850649
v -0.894426 -0.447216 0.000000
v -0.276388 -0.447220 -0.850649
v 0.723607 -0.447220 -0.525725
v 0.276388 0.447220 0.850649
v -0.723607 0.447220 0.525725
v -0.723607 0.447220 -0.525725
v 0.276388 0.447220 -0.850649
v 0.894426 0.447216 0.000000
v 0.000000 1.000000 0.000000
v -0.232822 -0.657519 0.716563
v -0.162456 -0.850654 0.499995
v -0.077607 -0.967950 0.238853
v 0.203181 -0.967950 0.147618
v 0.425323 -0.850654 0.309011
v 0.609547 -0.657519 0.442856
v 0.531941 -0.502302 0.681712
v 0.262869 -0.525738 0.809012
v -0.029639 -0.502302 0.864184
v 0.812729 -0.502301 -0.295238
v 0.850648 -0.525736 0.000000
v 0.812729 -0.502301 0.295238
v 0.203181 -0.967950 -0.147618
v 0.425323 -0.850654 -0.309011
v 0.609547 -0.657519 -0.442856
v -0.753442 -0.657515 0.000000
v -0.525730 -0.850652 0.000000
v -0.251147 -0.967949 0.000000
v -0.483971 -0.502302 0.716565
v -0.688189 -0.525736 0.499997
v -0.831051 -0.502299 0.238853
v -0.232822 -0.657519 -0.716563
v -0.162456 -0.850654 -0.499995
v -0.077607 -0.967950 -0.238853
v -0.831051 -0.502299 -0.238853
v -0.688189 -0.525736 -0.499997
v -0.483971 -0.502302 -0.716565
v -0.029639 -0.502302 -0.864184
v 0.262869 -0.525738 -0.809012
v 0.531941 -0.502302 -0.681712
v 0.956626 0.251149 0.147618
v 0.951058 -0.000000 0.309013
v 0.860698 -0.251151 0.442858
v 0.860698 -0.251151 -0.442858
v 0.951058 0.000000 -0.309013
v 0.956626 0.251149 -0.147618
v 0.155215 0.251152 0.955422
v 0.000000 -0.000000 1.000000
v -0.155215 -0.251152 0.955422
v 0.687159 -0.251152 0.681715
v 0.587786 0.000000 0.809017
v 0.436007 0.251152 0.864188
v -0.860698 0.251151 0.442858
v -0.951058 -0.000000 0.309013
v -0.956626 -0.251149 0.147618
v -0.436007 -0.251152 0.864188
v -0.587786 0.000000 0.809017
v -0.687159 0.251152 0.681715
v -0.687159 0.251152 -0.681715
v -0.587786 -0.000000 -0.809017
v -0.436007 -0.251152 -0.864188
v -0.956626 -0.251149 -0.147618
v -0.951058 0.000000 -0.309013
v -0.860698 0.251151 -0.442858
v 0.436007 0.251152 -0.864188
v 0.587786 -0.000000 -0.809017
v 0.687159 -0.251152 -0.681715
v -0.155215 -0.251152 -0.955422
v 0.000000 0.000000 -1.000000
v 0.155215 0.251152 -0.955422
v 0.831051 0.502299 0.238853
v 0.688189 0.525736 0.499997
v 0.483971 0.502302 0.716565
v 0.029639 0.502302 0.864184
v -0.262869 0.525738 0.809012
v -0.531941 0.502302 0.681712
v -0.812729 0.502301 0.295238
v -0.850648 0.525736 0.000000
v -0.812729 0.502301 -0.295238
v -0.531941 0.502302 -0.681712
v -0.262869 0.525738 -0.809012
v 0.029639 0.502302 -0.864184
v 0.483971 0.502302 -0.716565
v 0.688189 0.525736 -0.499997
v 0.831051 0.502299 -0.238853
v 0.077607 0.967950 0.238853
v 0.162456 0.850654 0.499995
v 0.232822 0.657519 0.716563
v 0.753442 0.657515 0.000000
v 0.525730 0.850652 0.000000
v 0.251147 0.967949 0.000000
v -0.203181 0.967950 0.147618
v -0.425323 0.850654 0.309011
v -0.609547 0.657519 0.442856
v -0.203181 0.967950 -0.147618
v -0.425323 0.850654 -0.309011
v -0.609547 0.657519 -0.442856
v 0.077607 0.967950 -0.238853
v 0.162456 0.850654 -0.499995
v 0.232822 0.657519 -0.716563
v 0.361800 0.894429 -0.262863
v 0.638194 0.723610 -0.262864
v 0.447209 0.723612 -0.525728
v -0.138197 0.894430 -0.425319
v -0.052790 0.723612 -0.688185
v -0.361804 0.723612 -0.587778
v -0.447210 0.894429 0.000000
v -0.670817 0.723611 -0.162457
v -0.670817 0.723611 0.162457
v -0.138197 0.894430 0.425319
v -0.361804 0.723612 0.587778
v -0.052790 0.723612 0.688185
v 0.361800 0.894429 0.262863
v 0.447209 0.723612 0.525728
v 0.638194 0.723610 0.262864
v 0.861804 0.276396 -0.425322
v 0.809019 0.000000 -0.587782
v 0.670821 0.276397 -0.688189
v -0.138199 0.276397 -0.951055
v -0.309016 -0.000000 -0.951057
v -0.447215 0.276397 -0.850649
v -0.947213 0.276396 -0.162458
v -1.000000 0.000001 0.000000
v -0.947213 0.276397 0.162458
v -0.447216 0.276397 0.850648
v -0.309017 -0.000001 0.951056
v -0.138199 0.276397 0.951055
v 0.670820 0.276396 0.688190
v 0.809019 -0.000002 0.587783
v 0.861804 0.276394 0.425323
v 0.309017 -0.000000 -0.951056
v 0.447216 -0.276398 -0.850648
v 0.138199 -0.276398 -0.951055
v -0.809018 -0.000000 -0.587783
v -0.670819 -0.276397 -0.688191
v -0.861803 -0.276396 -0.425324
v -0.809018 0.000000 0.587783
v -0.861803 -0.276396 0.425324
v -0.670819 -0.276397 0.688191
v 0.309017 0.000000 0.951056
v 0.138199 -0.276398 0.951055
v 0.447216 -0.276398 0.850648
v 1.000000 0.000000 0.000000
v 0.947213 -0.276396 0.162458
v 0.947213 -0.276396 -0.162458
v 0.361803 -0.723612 -0.587779
v 0.138197 -0.894429 -0.425321
v 0.052789 -0.723611 -0.688186
v -0.447211 -0.723612 -0.525727
v -0.361801 -0.894429 -0.262863
v -0.638195 -0.723609 -0.262863
v -0.638195 -0.723609 0.262864
v -0.361801 -0.894428 0.262864
v -0.447211 -0.723610 0.525729
v 0.670817 -0.723611 -0.162457
v 0.670818 -0.723610 0.162458
v 0.447211 -0.894428 0.000001
v 0.052790 -0.723612 0.688185
v 0.138199 -0.894429 0.425321
v 0.361805 -0.723611 0.587779
vt 0.536350 0.467527
vt 0.513326 0.471860
vt 0.524742 0.446526
vt 0.434449 0.495210
vt 0.458630 0.486030
vt 0.451741 0.514208
vt 0.553053 0.450157
vt 0.557789 0.478306
vt 0.532921 0.490703
vt 0.421924 0.519073
vt 0.473100 0.359454
vt 0.450536 0.391234
vt 0.427917 0.341677
vt 0.617991 0.382629
vt 0.588308 0.370123
vt 0.621632 0.348305
vt 0.646813 0.526503
vt 0.648827 0.488522
vt 0.689604 0.515357
vt 0.512672 0.570432
vt 0.540638 0.570555
vt 0.519795 0.598401
vt 0.406223 0.489186
vt 0.482565 0.316260
vt 0.652146 0.377649
vt 0.666342 0.570957
vt 0.489317 0.583881
vt 0.259615 0.495004
vt 0.294404 0.536715
vt 0.231756 0.549802
vt 0.618394 0.182140
vt 0.562816 0.126623
vt 0.664232 0.117332
vt 0.818311 0.374389
vt 0.792194 0.312003
vt 0.881277 0.326052
vt 0.519713 0.745124
vt 0.540626 0.815344
vt 0.466046 0.775105
vt 0.396222 0.613244
vt 0.413525 0.641908
vt 0.372046 0.638385
vt 0.297296 0.716117
vt 0.317985 0.784713
vt 0.253328 0.761839
vt 0.338570 0.673196
vt 0.358554 0.729211
vt 0.391028 0.679571
vt 0.394105 0.790584
vt 0.422755 0.727491
vt 0.440240 0.676054
vt 0.476674 0.711993
vt 0.247827 0.842148
vt 0.345707 0.868966
vt 0.453732 0.859295
vt 0.261403 0.966880
vt 0.411837 0.985791
vt 0.990415 0.383674
vt 0.966243 0.234128
vt 0.555759 0.937341
vt 0.948107 0.529416
vt 0.875959 0.427754
vt 0.173295 0.770475
vt 0.132744 0.887232
vt 0.836646 0.234892
vt 0.048127 0.761786
vt 0.881925 0.108167
vt 0.757067 0.158366
vt 0.752764 0.028838
vt 0.744430 0.251147
vt 0.681753 0.205798
vt 0.227943 0.698126
vt 0.142671 0.673719
vt 0.602387 0.010531
vt 0.219101 0.622293
vt 0.023350 0.612206
vt 0.148112 0.565398
vt 0.458411 0.058504
vt 0.066137 0.466500
vt 0.188631 0.476851
vt 0.281816 0.655418
vt 0.281025 0.591199
vt 0.330149 0.621028
vt 0.331740 0.571716
vt 0.366904 0.597075
vt 0.426691 0.606755
vt 0.459394 0.596725
vt 0.451474 0.633289
vt 0.489391 0.617921
vt 0.486281 0.662658
vt 0.527325 0.638557
vt 0.529545 0.690569
vt 0.588289 0.735308
vt 0.694126 0.677922
vt 0.661438 0.827799
vt 0.740890 0.563666
vt 0.843076 0.639953
vt 0.822832 0.509536
vt 0.742118 0.484586
vt 0.788870 0.433158
vt 0.756691 0.372926
vt 0.699055 0.373999
vt 0.723841 0.320552
vt 0.664959 0.333787
vt 0.675883 0.274433
vt 0.623446 0.301290
vt 0.622265 0.243656
vt 0.560820 0.213857
vt 0.511260 0.262584
vt 0.483173 0.182906
vt 0.432289 0.266902
vt 0.352065 0.167776
vt 0.171463 0.356619
vt 0.319948 0.318097
vt 0.266743 0.426097
vt 0.313745 0.483047
vt 0.365803 0.483232
vt 0.343326 0.525186
vt 0.387907 0.520330
vt 0.374033 0.558818
vt 0.410259 0.549476
vt 0.401515 0.582545
vt 0.581722 0.658714
vt 0.558751 0.604473
vt 0.613722 0.600978
vt 0.576981 0.565409
vt 0.615940 0.550293
vt 0.725620 0.423282
vt 0.686141 0.463846
vt 0.671819 0.415740
vt 0.643126 0.448330
vt 0.631649 0.411801
vt 0.573162 0.276672
vt 0.582801 0.330137
vt 0.534172 0.317706
vt 0.551358 0.360082
vt 0.510973 0.355957
vt 0.343535 0.429664
vt 0.399976 0.395431
vt 0.398633 0.450497
vt 0.436954 0.430754
vt 0.433233 0.467270
vt 0.433672 0.574300
vt 0.442379 0.541773
vt 0.465835 0.564329
vt 0.471928 0.534518
vt 0.493012 0.553897
vt 0.520900 0.545911
vt 0.527852 0.517989
vt 0.550336 0.539628
vt 0.555852 0.506961
vt 0.584129 0.527405
vt 0.584506 0.492581
vt 0.615022 0.509404
vt 0.613771 0.473496
vt 0.580742 0.460106
vt 0.606862 0.436840
vt 0.573916 0.428463
vt 0.596651 0.404821
vt 0.564257 0.395869
vt 0.542030 0.422879
vt 0.527359 0.390398
vt 0.509432 0.420388
vt 0.491430 0.390552
vt 0.500108 0.526859
vt 0.478480 0.506060
vt 0.507049 0.497997
vt 0.486259 0.477991
vt 0.474650 0.422126
vt 0.496183 0.449582
vt 0.463757 0.456371
vn 0.0000 -1.0000 0.0000
vn 0.2109 -0.9654 0.1533
vn -0.0806 -0.9654 0.2480
vn 0.7236 -0.4472 0.5257
vn 0.6042 -0.6650 0.4390
vn 0.8152 -0.5038 0.2857
vn -0.2608 -0.9654 0.0000
vn -0.0806 -0.9654 -0.2480
vn 0.2109 -0.9654 -0.1533
vn 0.8650 -0.2430 0.4390
vn -0.2764 -0.4472 0.8506
vn -0.0198 -0.5038 0.8636
vn -0.1502 -0.2430 0.9583
vn -0.8944 -0.4472 0.0000
vn -0.8274 -0.5038 0.2480
vn -0.9578 -0.2430 0.1533
vn -0.2764 -0.4472 -0.8506
vn -0.4915 -0.5038 -0.7103
vn -0.4417 -0.2430 -0.8636
vn 0.7236 -0.4472 -0.5257
vn 0.5236 -0.5038 -0.6870
vn 0.6848 -0.2430 -0.6870
vn 0.6848 -0.2430 0.6870
vn -0.4417 -0.2430 0.8636
vn -0.9578 -0.2430 -0.1533
vn -0.1502 -0.2430 -0.9583
vn 0.8650 -0.2430 -0.4390
vn 0.2764 0.4472 0.8506
vn 0.4915 0.5038 0.7103
vn 0.2308 0.6650 0.7103
vn -0.7236 0.4472 0.5257
vn -0.5236 0.5038 0.6870
vn -0.6042 0.6650 0.4390
vn -0.7236 0.4472 -0.5257
vn -0.8152 0.5038 -0.2857
vn -0.6042 0.6650 -0.4390
vn 0.2764 0.4472 -0.8506
vn 0.0198 0.5038 -0.8636
vn 0.2308 0.6650 -0.7103
vn 0.8944 0.4472 0.0000
vn 0.8274 0.5038 -0.2480
vn 0.7468 0.6650 0.0000
vn 0.2608 0.9654 0.0000
vn 0.0806 0.9654 -0.2480
vn 0.0000 1.0000 0.0000
vn 0.5257 0.8506 0.0000
vn 0.3682 0.8904 -0.2675
vn 0.6317 0.7275 -0.2675
vn 0.1625 0.8506 -0.5000
vn 0.4496 0.7275 -0.5181
vn 0.6882 0.5257 -0.5000
vn 0.4915 0.5038 -0.7103
vn -0.2109 0.9654 -0.1533
vn -0.1406 0.8904 -0.4328
vn -0.0592 0.7275 -0.6835
vn -0.4253 0.8506 -0.3090
vn -0.3538 0.7275 -0.5877
vn -0.2629 0.5257 -0.8090
vn -0.5236 0.5038 -0.6870
vn -0.2109 0.9654 0.1533
vn -0.4551 0.8904 0.0000
vn -0.6683 0.7275 -0.1549
vn -0.4253 0.8506 0.3090
vn -0.6683 0.7275 0.1549
vn -0.8506 0.5257 0.0000
vn -0.8152 0.5038 0.2857
vn 0.0806 0.9654 0.2480
vn -0.1406 0.8904 0.4328
vn -0.3538 0.7275 0.5877
vn 0.1625 0.8506 0.5000
vn -0.0592 0.7275 0.6835
vn -0.2629 0.5257 0.8090
vn 0.0198 0.5038 0.8636
vn 0.3682 0.8904 0.2675
vn 0.4496 0.7275 0.5181
vn 0.6317 0.7275 0.2675
vn 0.6882 0.5257 0.5000
vn 0.8274 0.5038 0.2480
vn 0.9578 0.2430 -0.1533
vn 0.9510 0.0000 -0.3090
vn 0.8593 0.2724 -0.4328
vn 0.8090 0.0089 -0.5878
vn 0.6772 0.2724 -0.6835
vn 0.5878 0.0000 -0.8090
vn 0.4417 0.2430 -0.8636
vn 0.1502 0.2430 -0.9583
vn 0.0000 0.0000 -1.0000
vn -0.1461 0.2724 -0.9510
vn -0.3090 0.0089 -0.9510
vn -0.4407 0.2724 -0.8553
vn -0.5878 0.0000 -0.8090
vn -0.6848 0.2430 -0.6870
vn -0.8650 0.2430 -0.4390
vn -0.9510 0.0000 -0.3090
vn -0.9496 0.2724 -0.1549
vn -0.9999 0.0089 0.0000
vn -0.9496 0.2724 0.1549
vn -0.9510 0.0000 0.3090
vn -0.8650 0.2430 0.4390
vn -0.6848 0.2430 0.6870
vn -0.5878 0.0000 0.8090
vn -0.4407 0.2724 0.8553
vn -0.3090 0.0089 0.9510
vn -0.1461 0.2724 0.9510
vn 0.0000 0.0000 1.0000
vn 0.1502 0.2430 0.9583
vn 0.4417 0.2430 0.8636
vn 0.5878 0.0000 0.8090
vn 0.6772 0.2724 0.6835
vn 0.8090 0.0089 0.5878
vn 0.8593 0.2724 0.4328
vn 0.9510 0.0000 0.3090
vn 0.9578 0.2430 0.1533
vn 0.3090 -0.0089 -0.9510
vn 0.4407 -0.2724 -0.8553
vn 0.1461 -0.2724 -0.9510
vn 0.2629 -0.5257 -0.8090
vn -0.0198 -0.5038 -0.8636
vn -0.8090 -0.0089 -0.5878
vn -0.6772 -0.2724 -0.6835
vn -0.8593 -0.2724 -0.4328
vn -0.6882 -0.5257 -0.5000
vn -0.8274 -0.5038 -0.2480
vn -0.8090 -0.0089 0.5878
vn -0.8593 -0.2724 0.4328
vn -0.6772 -0.2724 0.6835
vn -0.6882 -0.5257 0.5000
vn -0.4915 -0.5038 0.7103
vn 0.3090 -0.0089 0.9510
vn 0.1461 -0.2724 0.9510
vn 0.4407 -0.2724 0.8553
vn 0.2629 -0.5257 0.8090
vn 0.5236 -0.5038 0.6870
vn 0.9999 -0.0089 0.0000
vn 0.9496 -0.2724 0.1549
vn 0.9496 -0.2724 -0.1549
vn 0.8506 -0.5257 0.0000
vn 0.8152 -0.5038 -0.2857
vn 0.6042 -0.6650 -0.4390
vn 0.4253 -0.8506 -0.3090
vn 0.3538 -0.7275 -0.5878
vn 0.1406 -0.8904 -0.4328
vn 0.0592 -0.7275 -0.6835
vn -0.1625 -0.8506 -0.5000
vn -0.2308 -0.6650 -0.7103
vn -0.4496 -0.7275 -0.5181
vn -0.3682 -0.8904 -0.2675
vn -0.6317 -0.7275 -0.2675
vn -0.5257 -0.8506 0.0000
vn -0.7468 -0.6650 0.0000
vn -0.6317 -0.7275 0.2675
vn -0.3682 -0.8904 0.2675
vn -0.4496 -0.7275 0.5181
vn -0.1625 -0.8506 0.5000
vn -0.2308 -0.6650 0.7103
vn 0.6683 -0.7275 -0.1549
vn 0.6683 -0.7275 0.1549
vn 0.4551 -0.8904 0.0000
vn 0.4253 -0.8506 0.3090
vn 0.0592 -0.7275 0.6835
vn 0.1406 -0.8904 0.4328
vn 0.3538 -0.7275 0.5878
usemtl textured
s 1
f 1/1/1 16/2/2 15/3/3
f 2/4/4 18/5/5 24/6/6
f 1/1/1 15/3/3 30/7/7
f 1/1/1 30/7/7 36/8/8
f 1/1/1 36/8/8 25/9/9
f 2/4/4 24/6/6 45/10/10
f 3/11/11 21/12/12 51/13/13
f 4/14/14 33/15/15 57/16/16
f 5/17/17 39/18/18 63/19/19
f 6/20/20 42/21/21 69/22/22
f 2/4/4 45/10/10 52/23/23
f 3/11/11 51/13/13 58/24/24
f 4/14/14 57/16/16 64/25/25
f 5/17/17 63/19/19 70/26/26
f 6/20/20 69/22/22 46/27/27
f 7/28/28 75/29/29 90/30/30
f 8/31/31 78/32/32 96/33/33
f 9/34/34 81/35/35 99/36/36
f 10/37/37 84/38/38 102/39/39
f 11/40/40 87/41/41 91/42/42
f 93/43/43 100/44/44 12/45/45
f 92/46/46 103/47/47 93/43/43
f 91/42/42 104/48/48 92/46/46
f 93/43/43 103/47/47 100/44/44
f 103/47/47 101/49/49 100/44/44
f 92/46/46 104/48/48 103/47/47
f 104/48/48 105/50/50 103/47/47
f 103/47/47 105/50/50 101/49/49
f 105/50/50 102/39/39 101/49/49
f 91/42/42 87/41/41 104/48/48
f 87/41/41 86/51/51 104/48/48
f 104/48/48 86/51/51 105/50/50
f 86/51/51 85/52/52 105/50/50
f 105/50/50 85/52/52 102/39/39
f 85/52/52 10/37/37 102/39/39
f 100/44/44 97/53/53 12/45/45
f 101/49/49 106/54/54 100/44/44
f 102/39/39 107/55/55 101/49/49
f 100/44/44 106/54/54 97/53/53
f 106/54/54 98/56/56 97/53/53
f 101/49/49 107/55/55 106/54/54
f 107/55/55 108/57/57 106/54/54
f 106/54/54 108/57/57 98/56/56
f 108/58/57 99/36/36 98/59/56
f 102/39/39 84/38/38 107/55/55
f 84/38/38 83/60/58 107/55/55
f 107/55/55 83/60/58 108/57/57
f 83/61/58 82/62/59 108/58/57
f 108/58/57 82/62/59 99/36/36
f 82/62/59 9/34/34 99/36/36
f 97/53/53 94/63/60 12/45/45
f 98/56/56 109/64/61 97/53/53
f 99/36/36 110/65/62 98/59/56
f 97/53/53 109/64/61 94/63/60
f 109/64/61 95/66/63 94/63/60
f 98/59/56 110/65/62 109/67/61
f 110/65/62 111/68/64 109/67/61
f 109/67/61 111/68/64 95/69/63
f 111/68/64 96/33/33 95/69/63
f 99/36/36 81/35/35 110/65/62
f 81/35/35 80/70/65 110/65/62
f 110/65/62 80/70/65 111/68/64
f 80/70/65 79/71/66 111/68/64
f 111/68/64 79/71/66 96/33/33
f 79/71/66 8/31/31 96/33/33
f 94/63/60 88/72/67 12/45/45
f 95/66/63 112/73/68 94/63/60
f 96/33/33 113/74/69 95/69/63
f 94/63/60 112/73/68 88/72/67
f 112/73/68 89/75/70 88/72/67
f 95/66/63 113/76/69 112/73/68
f 113/76/69 114/77/71 112/73/68
f 112/73/68 114/77/71 89/75/70
f 114/77/71 90/30/30 89/75/70
f 96/33/33 78/32/32 113/74/69
f 78/32/32 77/78/72 113/74/69
f 113/76/69 77/79/72 114/77/71
f 77/79/72 76/80/73 114/77/71
f 114/77/71 76/80/73 90/30/30
f 76/80/73 7/28/28 90/30/30
f 88/72/67 93/43/43 12/45/45
f 89/75/70 115/81/74 88/72/67
f 90/30/30 116/82/75 89/75/70
f 88/72/67 115/81/74 93/43/43
f 115/81/74 92/46/46 93/43/43
f 89/75/70 116/82/75 115/81/74
f 116/82/75 117/83/76 115/81/74
f 115/81/74 117/83/76 92/46/46
f 117/83/76 91/42/42 92/46/46
f 90/30/30 75/29/29 116/82/75
f 75/29/29 74/84/77 116/82/75
f 116/82/75 74/84/77 117/83/76
f 74/84/77 73/85/78 117/83/76
f 117/83/76 73/85/78 91/42/42
f 73/85/78 11/40/40 91/42/42
f 48/86/79 87/41/41 11/40/40
f 47/87/80 118/88/81 48/86/79
f 46/27/27 119/89/82 47/87/80
f 48/86/79 118/88/81 87/41/41
f 118/88/81 86/51/51 87/41/41
f 47/87/80 119/89/82 118/88/81
f 119/89/82 120/90/83 118/88/81
f 118/88/81 120/90/83 86/51/51
f 120/90/83 85/52/52 86/51/51
f 46/27/27 69/22/22 119/89/82
f 69/22/22 68/91/84 119/89/82
f 119/89/82 68/91/84 120/90/83
f 68/91/84 67/92/85 120/90/83
f 120/90/83 67/92/85 85/52/52
f 67/92/85 10/37/37 85/52/52
f 72/93/86 84/38/38 10/37/37
f 71/94/87 121/95/88 72/93/86
f 70/26/26 122/96/89 71/94/87
f 72/93/86 121/95/88 84/38/38
f 121/95/88 83/60/58 84/38/38
f 71/94/87 122/96/89 121/97/88
f 122/96/89 123/98/90 121/97/88
f 121/97/88 123/98/90 83/61/58
f 123/98/90 82/62/59 83/61/58
f 70/26/26 63/19/19 122/96/89
f 63/19/19 62/99/91 122/96/89
f 122/96/89 62/99/91 123/98/90
f 62/99/91 61/100/92 123/98/90
f 123/98/90 61/100/92 82/62/59
f 61/100/92 9/34/34 82/62/59
f 66/101/93 81/35/35 9/34/34
f 65/102/94 124/103/95 66/101/93
f 64/25/25 125/104/96 65/102/94
f 66/101/93 124/103/95 81/35/35
f 124/103/95 80/70/65 81/35/35
f 65/102/94 125/104/96 124/103/95
f 125/104/96 126/105/97 124/103/95
f 124/103/95 126/105/97 80/70/65
f 126/105/97 79/71/66 80/70/65
f 64/25/25 57/16/16 125/104/96
f 57/16/16 56/106/98 125/104/96
f 125/104/96 56/106/98 126/105/97
f 56/106/98 55/107/99 126/105/97
f 126/105/97 55/107/99 79/71/66
f 55/107/99 8/31/31 79/71/66
f 60/108/100 78/32/32 8/31/31
f 59/109/101 127/110/102 60/108/100
f 58/24/24 128/111/103 59/109/101
f 60/108/100 127/110/102 78/32/32
f 127/110/102 77/78/72 78/32/32
f 59/109/101 128/111/103 127/110/102
f 128/111/103 129/112/104 127/110/102
f 127/110/102 129/112/104 77/78/72
f 129/113/104 76/80/73 77/79/72
f 58/24/24 51/13/13 128/111/103
f 51/13/13 50/114/105 128/111/103
f 128/111/103 50/114/105 129/112/104
f 50/114/105 49/115/106 129/113/104
f 129/113/104 49/115/106 76/80/73
f 49/115/106 7/28/28 76/80/73
f 54/116/107 75/29/29 7/28/28
f 53/117/108 130/118/109 54/116/107
f 52/23/23 131/119/110 53/117/108
f 54/116/107 130/118/109 75/29/29
f 130/118/109 74/84/77 75/29/29
f 53/117/108 131/119/110 130/118/109
f 131/119/110 132/120/111 130/118/109
f 130/118/109 132/120/111 74/84/77
f 132/120/111 73/85/78 74/84/77
f 52/23/23 45/10/10 131/119/110
f 45/10/10 44/121/112 131/119/110
f 131/119/110 44/121/112 132/120/111
f 44/121/112 43/122/113 132/120/111
f 132/120/111 43/122/113 73/85/78
f 43/122/113 11/40/40 73/85/78
f 67/92/85 72/93/86 10/37/37
f 68/91/84 133/123/114 67/92/85
f 69/22/22 134/124/115 68/91/84
f 67/92/85 133/123/114 72/93/86
f 133/123/114 71/94/87 72/93/86
f 68/91/84 134/124/115 133/123/114
f 134/124/115 135/125/116 133/123/114
f 133/123/114 135/125/116 71/94/87
f 135/125/116 70/26/26 71/94/87
f 69/22/22 42/21/21 134/124/115
f 42/21/21 41/126/117 134/124/115
f 134/124/115 41/126/117 135/125/116
f 41/126/117 40/127/118 135/125/116
f 135/125/116 40/127/118 70/26/26
f 40/127/118 5/17/17 70/26/26
f 61/100/92 66/101/93 9/34/34
f 62/99/91 136/128/119 61/100/92
f 63/19/19 137/129/120 62/99/91
f 61/100/92 136/128/119 66/101/93
f 136/128/119 65/102/94 66/101/93
f 62/99/91 137/129/120 136/128/119
f 137/129/120 138/130/121 136/128/119
f 136/128/119 138/130/121 65/102/94
f 138/130/121 64/25/25 65/102/94
f 63/19/19 39/18/18 137/129/120
f 39/18/18 38/131/122 137/129/120
f 137/129/120 38/131/122 138/130/121
f 38/131/122 37/132/123 138/130/121
f 138/130/121 37/132/123 64/25/25
f 37/132/123 4/14/14 64/25/25
f 55/107/99 60/108/100 8/31/31
f 56/106/98 139/133/124 55/107/99
f 57/16/16 140/134/125 56/106/98
f 55/107/99 139/133/124 60/108/100
f 139/133/124 59/109/101 60/108/100
f 56/106/98 140/134/125 139/133/124
f 140/134/125 141/135/126 139/133/124
f 139/133/124 141/135/126 59/109/101
f 141/135/126 58/24/24 59/109/101
f 57/16/16 33/15/15 140/134/125
f 33/15/15 32/136/127 140/134/125
f 140/134/125 32/136/127 141/135/126
f 32/136/127 31/137/128 141/135/126
f 141/135/126 31/137/128 58/24/24
f 31/137/128 3/11/11 58/24/24
f 49/115/106 54/116/107 7/28/28
f 50/114/105 142/138/129 49/115/106
f 51/13/13 143/139/130 50/114/105
f 49/115/106 142/138/129 54/116/107
f 142/138/129 53/117/108 54/116/107
f 50/114/105 143/139/130 142/138/129
f 143/139/130 144/140/131 142/138/129
f 142/138/129 144/140/131 53/117/108
f 144/140/131 52/23/23 53/117/108
f 51/13/13 21/12/12 143/139/130
f 21/12/12 20/141/132 143/139/130
f 143/139/130 20/141/132 144/140/131
f 20/141/132 19/142/133 144/140/131
f 144/140/131 19/142/133 52/23/23
f 19/142/133 2/4/4 52/23/23
f 43/122/113 48/86/79 11/40/40
f 44/121/112 145/143/134 43/122/113
f 45/10/10 146/144/135 44/121/112
f 43/122/113 145/143/134 48/86/79
f 145/143/134 47/87/80 48/86/79
f 44/121/112 146/144/135 145/143/134
f 146/144/135 147/145/136 145/143/134
f 145/143/134 147/145/136 47/87/80
f 147/145/136 46/27/27 47/87/80
f 45/10/10 24/6/6 146/144/135
f 24/6/6 23/146/137 146/144/135
f 146/144/135 23/146/137 147/145/136
f 23/146/137 22/147/138 147/145/136
f 147/145/136 22/147/138 46/27/27
f 22/147/138 6/20/20 46/27/27
f 27/148/139 42/21/21 6/20/20
f 26/149/140 148/150/141 27/148/139
f 25/9/9 149/151/142 26/149/140
f 27/148/139 148/150/141 42/21/21
f 148/150/141 41/126/117 42/21/21
f 26/149/140 149/151/142 148/150/141
f 149/151/142 150/152/143 148/150/141
f 148/150/141 150/152/143 41/126/117
f 150/152/143 40/127/118 41/126/117
f 25/9/9 36/8/8 149/151/142
f 36/8/8 35/153/144 149/151/142
f 149/151/142 35/153/144 150/152/143
f 35/153/144 34/154/145 150/152/143
f 150/152/143 34/154/145 40/127/118
f 34/154/145 5/17/17 40/127/118
f 34/154/145 39/18/18 5/17/17
f 35/153/144 151/155/146 34/154/145
f 36/8/8 152/156/147 35/153/144
f 34/154/145 151/155/146 39/18/18
f 151/155/146 38/131/122 39/18/18
f 35/153/144 152/156/147 151/155/146
f 152/156/147 153/157/148 151/155/146
f 151/155/146 153/157/148 38/131/122
f 153/157/148 37/132/123 38/131/122
f 36/8/8 30/7/7 152/156/147
f 30/7/7 29/158/149 152/156/147
f 152/156/147 29/158/149 153/157/148
f 29/158/149 28/159/150 153/157/148
f 153/157/148 28/159/150 37/132/123
f 28/159/150 4/14/14 37/132/123
f 28/159/150 33/15/15 4/14/14
f 29/158/149 154/160/151 28/159/150
f 30/7/7 155/161/152 29/158/149
f 28/159/150 154/160/151 33/15/15
f 154/160/151 32/136/127 33/15/15
f 29/158/149 155/161/152 154/160/151
f 155/161/152 156/162/153 154/160/151
f 154/160/151 156/162/153 32/136/127
f 156/162/153 31/137/128 32/136/127
f 30/7/7 15/3/3 155/161/152
f 15/3/3 14/163/154 155/161/152
f 155/161/152 14/163/154 156/162/153
f 14/163/154 13/164/155 156/162/153
f 156/162/153 13/164/155 31/137/128
f 13/164/155 3/11/11 31/137/128
f 22/147/138 27/148/139 6/20/20
f 23/146/137 157/165/156 22/147/138
f 24/6/6 158/166/157 23/146/137
f 22/147/138 157/165/156 27/148/139
f 157/165/156 26/149/140 27/148/139
f 23/146/137 158/166/157 157/165/156
f 158/166/157 159/167/158 157/165/156
f 157/165/156 159/167/158 26/149/140
f 159/167/158 25/9/9 26/149/140
f 24/6/6 18/5/5 158/166/157
f 18/5/5 17/168/159 158/166/157
f 158/166/157 17/168/159 159/167/158
f 17/168/159 16/2/2 159/167/158
f 159/167/158 16/2/2 25/9/9
f 16/2/2 1/1/1 25/9/9
f 13/164/155 21/12/12 3/11/11
f 14/163/154 160/169/160 13/164/155
f 15/3/3 161/170/161 14/163/154
f 13/164/155 160/169/160 21/12/12
f 160/169/160 20/141/132 21/12/12
f 14/163/154 161/170/161 160/169/160
f 161/170/161 162/171/162 160/169/160
f 160/169/160 162/171/162 20/141/132
f 162/171/162 19/142/133 20/141/132
f 15/3/3 16/2/2 161/170/161
f 16/2/2 17/168/159 161/170/161
f 161/170/161 17/168/159 162/171/162
f 17/168/159 18/5/5 162/171/162
f 162/171/162 18/5/5 19/142/133
f 18/5/5 2/4/4 19/142/133
